<?xml version="1.0" standalone="no"?><!DOCTYPE svg PUBLIC "-//W3C//DTD SVG 1.1//EN" "http://www.w3.org/Graphics/SVG/1.1/DTD/svg11.dtd">
<svg t="1695107147131" class="icon" viewBox="0 0 1024 1024" version="1.1" xmlns="http://www.w3.org/2000/svg" p-id="1728" id="mx_n_1695107147132" 
xmlns:xlink="http://www.w3.org/1999/xlink" width="200" height="200">
<path d="M512 237.49285865c5.43823219 0 10.75286865 1.42135643 15.44952368 4.14047288l210.97869874 121.80404664c9.5169065 5.50003075 15.44952368 15.7585144 15.4495244 26.7585752v243.60809326c0 11.00006079-5.93261719 21.25854516-15.4495244 26.7585752L527.44952368 782.36666847c-4.69665503 2.71911645-10.01129151 4.14047217-15.44952368 4.14047288-5.43823219 0-10.75286865-1.42135643-15.44952368-4.14047288L285.57177758 660.56262183a31.01028466 31.01028466 0 0 1-15.4495244-26.7585752V390.19595337c0-11.00006079 5.93261719-21.25854516 15.4495244-26.7585752L496.55047632 241.63333153c4.69665503-2.71911645 10.01129151-4.14047217 15.44952368-4.14047288m0-43.25866675c-12.79220581 0-25.58441162 3.33709717-37.07885742 9.94949364L263.94244385 325.98773218c-22.92709374 13.22479224-37.07885742 37.75863671-37.07885742 64.20822119v243.60809326c0 26.51138305 14.15176368 50.98342896 37.07885742 64.20822119L474.92114258 819.81631446c11.4944458 6.61239648 24.28665161 9.94949364 37.07885742 9.94949364s25.58441162-3.33709717 37.07885742-9.94949364l210.97869873-121.80404663c22.92709374-13.22479224 37.07885742-37.75863671 37.07885742-64.2082212V390.19595337c0-26.51138305-14.15176368-50.98342896-37.07885742-64.20822119L549.07885742 204.18368554a74.33074928 74.33074928 0 0 0-37.07885742-9.94949364z" 
></path>
<path d="M686.51782203 398.60049415a24.8366549 24.8366549 0 0 0-33.80355812-9.08432008L512 470.84246826 371.22393823 389.57797265c-3.7696836-2.16293359-8.0337522-3.33709717-12.35961938-3.33709717-8.83712792 0-16.99447656 4.75845361-21.44393945 12.35961867-6.79779077 11.80343651-2.7809143 26.94396949 9.02252221 33.74176025L487.28076195 513.66854859v162.52899193c0 13.65737939 11.06185937 24.71923805 24.71923805 24.71923805s24.71923805-11.06185937 24.71923805-24.71923805v-162.52899193l140.77606248-81.26449562c11.80343651-6.85958862 15.88211083-22.00012231 9.0225215-33.80355882z"></path>
</path></svg>