<?xml version="1.0" standalone="no"?><!DOCTYPE svg PUBLIC "-//W3C//DTD SVG 1.1//EN" "http://www.w3.org/Graphics/SVG/1.1/DTD/svg11.dtd"><svg t="1695200138401" class="icon" viewBox="0 0 1024 1024" version="1.1" xmlns="http://www.w3.org/2000/svg" p-id="1595" id="mx_n_1695200138402" xmlns:xlink="http://www.w3.org/1999/xlink" width="200" height="200"><path d="M837.818182 0H186.181818C83.781818 0 0 83.781818 0 186.181818v651.636364c0 102.4 83.781818 186.181818 186.181818 186.181818h651.636364c102.4 0 186.181818-83.781818 186.181818-186.181818V186.181818c0-102.4-83.781818-186.181818-186.181818-186.181818z m93.090909 651.636364H698.181818c-76.8 0-139.636364-62.836364-139.636363-139.636364s62.836364-139.636364 139.636363-139.636364h232.727273v279.272728zM698.181818 279.272727c-128 0-232.727273 104.727273-232.727273 232.727273s104.727273 232.727273 232.727273 232.727273h232.727273v93.090909c0 51.2-41.890909 93.090909-93.090909 93.090909H186.181818c-51.2 0-93.090909-41.890909-93.090909-93.090909V186.181818c0-51.2 41.890909-93.090909 93.090909-93.090909h651.636364c51.2 0 93.090909 41.890909 93.090909 93.090909v93.090909H698.181818z"   p-id="1596"></path><path d="M698.181818 512m-69.818182 0a69.818182 69.818182 0 1 0 139.636364 0 69.818182 69.818182 0 1 0-139.636364 0Z" p-id="1597"></path></svg>